<svg width="36" height="36" viewBox="0 0 36 36" fill="none" xmlns="http://www.w3.org/2000/svg">
<path fill-rule="evenodd" clip-rule="evenodd" d="M13.5866 33.109C11.4638 31.9189 9.40375 30.3711 7.51637 28.4837C5.62892 26.5963 4.08106 24.5362 2.89094 22.4133C2.54957 25.8641 3.46385 28.7332 5.3653 30.6347C7.26673 32.5361 10.1358 33.4504 13.5866 33.109ZM0.955372 17.9999C-0.84064 12.3988 -0.141612 6.88135 3.36985 3.36989C6.8813 -0.141566 12.3987 -0.840599 17.9999 0.955397C23.6011 -0.840725 29.1186 -0.141731 32.6302 3.36979C36.1417 6.88127 36.8407 12.3988 35.0446 17.9999C36.8407 23.6012 36.1418 29.1187 32.6302 32.6303C29.1187 36.1418 23.6011 36.8408 17.9999 35.0446C12.3987 36.8407 6.88126 36.1416 3.36979 32.6302C-0.141715 29.1187 -0.840719 23.6011 0.955372 17.9999ZM3.94146 17.9999C5.02165 15.0997 6.88183 12.1418 9.51182 9.51182C12.1418 6.88185 15.0997 5.02168 17.9999 3.94148C20.9002 5.02167 23.8581 6.88187 26.4882 9.51192C29.1182 12.1419 30.9783 15.0997 32.0585 17.9999C30.9783 20.9002 29.1181 23.8581 26.4881 26.4881C23.8581 29.1182 20.9002 30.9784 17.9999 32.0586C15.0997 30.9783 12.1418 29.1182 9.51188 26.4882C6.88184 23.8582 5.02164 20.9002 3.94146 17.9999ZM22.4132 33.1091C25.864 33.4505 28.7332 32.5362 30.6347 30.6348C32.5362 28.7333 33.4505 25.8641 33.1091 22.4132C31.9189 24.5361 30.3711 26.5962 28.4836 28.4836C26.5962 30.3711 24.5361 31.919 22.4132 33.1091ZM33.109 13.5866C33.4504 10.1359 32.5361 7.26675 30.6347 5.3653C28.7332 3.46383 25.864 2.54955 22.4132 2.89095C24.5361 4.08107 26.5962 5.62894 28.4837 7.51641C30.3711 9.4038 31.9189 11.4638 33.109 13.5866ZM2.89098 13.5866C2.54967 10.1359 3.46394 7.26682 5.36536 5.3654C7.26677 3.46399 10.1358 2.54971 13.5865 2.89102C11.4637 4.08112 9.4037 5.62893 7.51631 7.51631C5.62891 9.40371 4.08109 11.4637 2.89098 13.5866Z" fill="#77A871"/>
</svg>
